<svg xmlns="http://www.w3.org/2000/svg" width="57.507" height="54.89" viewBox="0 0 57.507 54.89">
  <path id="a" d="M249.924,27.45a11.289,11.289,0,1,0,22.578-.01,11.289,11.289,0,1,0-22.578.01m-4.429,0a15.72,15.72,0,1,1,15.727,15.713A15.717,15.717,0,0,1,245.5,27.45m13.562,27.44a22.156,22.156,0,0,0,17.8-8.258l0,6.862,13.636-.007-.027-52.112-13.636.007,0,6.862A22.151,22.151,0,0,0,259.031,0c-14.243.007-26.048,12.257-26.041,27.457S244.814,54.9,259.058,54.89" transform="translate(-232.99 0)" fill="#fff"/>
</svg>
