<svg xmlns="http://www.w3.org/2000/svg" width="75.15" height="53.525" viewBox="0 0 75.15 53.525">
  <path id="m" d="M.023,53.585l14.331-.007-.013-32.4c6.248-4.949,9.113-6.516,11.459-6.516,2.778,0,4.6,1.735,4.607,6.077l.013,32.829,14.331-.007-.013-32.48c6.251-4.865,9.029-6.432,11.462-6.432,2.778,0,4.6,1.735,4.607,6.077l.013,32.829,14.331-.007-.017-37.865C75.126,3.962,68.439.057,62.01.06c-5.473,0-11.029,2.262-18.32,7.825C41.341,2.066,36.218.07,31.614.073c-5.473,0-11.029,2.436-18.149,7.912l0-6.516L0,1.476Z" transform="translate(0 -0.06)" fill="#fff"/>
</svg>
