<svg xmlns="http://www.w3.org/2000/svg" width="62.383" height="52.132" viewBox="0 0 62.383 52.132">
  <path id="x" d="M411.833,56.162l17.283-.007a114.175,114.175,0,0,1,13.975-18.243,117.207,117.207,0,0,1,13.643,18.233l17.458-.007a210.427,210.427,0,0,0-20.333-26.393A199.71,199.71,0,0,0,474.169,4.03l-17.109.007a122.24,122.24,0,0,1-13.975,17.636A111.505,111.505,0,0,1,429.093,4.047l-17.283.007a172.025,172.025,0,0,0,20.421,25.7,222.343,222.343,0,0,0-20.4,26.41" transform="translate(-411.81 -4.03)" fill="#fff"/>
</svg>
