<svg width="24" height="24" viewBox="0 0 24 24" fill="none" xmlns="http://www.w3.org/2000/svg">
<path d="M24 2.24182L18 3.57382L19.716 5.43709L14.365 11.2822L11.364 8.00727L4.028 15.9076L5.438 17.4545L11.36 11.0902L14.351 14.3553L21.132 6.97855L22.799 8.78946L24 2.24182ZM7.31 9.30764L4.028 5.77418L5.438 4.22727L8.736 7.77164L7.31 9.30764ZM22.8 12.8935L24 19.44L18 18.108L19.716 16.2447L17.586 13.9178L18.997 12.3818L21.133 14.7044L22.8 12.8935ZM24 21.8182V24H0V0H2V21.8182H24Z" fill="#3179C5"/>
</svg>
